# xmcd
#
# Track frame offsets:
#	150
#	25686
#	39970
#	64940
#	84300
#	104848
#	123759
#	137332
#	160366
#	185837
#	207236
#	240019
#	265155
#	281235
#	299290
#	334067
#
# Disc length: 4665 seconds
#
# Revision: 0
# Processed by: cddbd v1.5PL3 Copyright (c) Steve Scherf et al.
# Submitted via: audiograbber 1.83.01
#
DISCID=e3123710
DTITLE=various. - Dream Dance. Volume 49. (2003) [CD 2)
DYEAR=1900
DGENRE=
TTITLE0=Pulser. - My Religion.
TTITLE1=Mario Piu. - Once Upon A Time In The West.
TTITLE2=Sensation. - The Anthem '2003. (Original Mix)
TTITLE3=Kosmonova. - Raumpatrouille. (Dream Mix)
TTITLE4=Ian Van Dahl. - I Cant Let You Go. (Push Dub Rmx)
TTITLE5=Enrique Iglesias. - Addicted. (Glam As You Mix)
TTITLE6=Rank 1. - Airwave.
TTITLE7=Yves Deruyterv and M Woods. - Frequence. (Main Mix)
TTITLE8=Questia. - Nexus Asia. (Vincente De Moor Mix)
TTITLE9=Safri Duo. - All The People In The World. (Dream Mix)
TTITLE10=Paul Van Dyk feat. Vega 4. - Connected Motomix.
TTITLE11=Armin Va Buuren. - Precious.
TTITLE12=The Aztec Mystic. - Aguila. (7'' Edit)
TTITLE13=Mike. - Turn Out The Lights.
TTITLE14=Gigi D'Agostino. - Silence. (Peomo Edit)
TTITLE15=Dr. Kucho feat. Jodie. - Belmondo 2.0. (Rulez Radio Edit)
EXTD=
EXTT0=
EXTT1=
EXTT2=
EXTT3=
EXTT4=
EXTT5=
EXTT6=
EXTT7=
EXTT8=
EXTT9=
EXTT10=
EXTT11=
EXTT12=
EXTT13=
EXTT14=
EXTT15=
PLAYORDER=
